# Blender 5.1.0
# www.blender.org
mtllib wall1_beta.mtl
o Wall_Back_Cube.006
v 0.981588 -0.051170 6.058316
v 0.981588 2.698830 6.058316
v 0.981588 -0.051170 3.608316
v 0.981588 2.698830 3.608316
v 1.072588 -0.051170 6.058316
v 1.072588 2.698830 6.058316
v 1.072588 -0.051170 3.608316
v 1.072588 2.698830 3.608316
v 5.272143 -0.051170 -4.152616
v 5.272143 2.698830 -4.152616
v -4.405357 -0.051170 -4.152615
v -4.405357 2.698830 -4.152615
v 5.272143 -0.051170 -4.243616
v 5.272143 2.698830 -4.243616
v -4.405357 -0.051170 -4.243615
v -4.405357 2.698830 -4.243615
v -4.409383 -0.051170 6.123914
v -4.409383 2.698830 6.123914
v -4.409383 -0.051170 -4.166086
v -4.409383 2.698830 -4.166086
v -4.318383 -0.051170 6.123914
v -4.318383 2.698830 6.123914
v -4.318383 -0.051170 -4.166086
v -4.318383 2.698830 -4.166086
v -2.617229 -0.051170 3.671982
v -2.617229 2.698830 3.671981
v -4.332229 -0.051170 3.671982
v -4.332229 2.698830 3.671981
v -2.617229 -0.051170 3.580981
v -2.617229 2.698830 3.580981
v -4.332229 -0.051170 3.580981
v -4.332229 2.698830 3.580981
v 1.086343 -0.051170 6.146209
v 1.086343 2.698830 6.146209
v -4.303657 -0.051170 6.146210
v -4.303657 2.698830 6.146210
v 1.086343 -0.051170 6.055209
v 1.086343 2.698830 6.055209
v -4.303657 -0.051170 6.055210
v -4.303657 2.698830 6.055210
v 2.711458 -0.051170 -0.595915
v 2.711458 2.698830 -0.595915
v 2.711458 -0.051170 -4.148415
v 2.711458 2.698830 -4.148415
v 2.802458 -0.051170 -0.595915
v 2.802458 2.698830 -0.595915
v 2.802458 -0.051170 -4.148415
v 2.802458 2.698830 -4.148415
v 2.809534 -0.051170 3.671982
v 2.809534 2.698830 3.671981
v -0.865466 -0.051170 3.671982
v -0.865466 2.698830 3.671981
v 2.809534 -0.051170 3.580981
v 2.809534 2.698830 3.580981
v -0.865466 -0.051170 3.580981
v -0.865466 2.698830 3.580981
v 2.730690 -0.051170 3.584489
v 2.730690 2.698830 3.584488
v 2.730690 -0.051170 1.134489
v 2.730690 2.698830 1.134488
v 2.821690 -0.051170 3.584489
v 2.821690 2.698830 3.584488
v 2.821690 -0.051170 1.134489
v 2.821690 2.698830 1.134488
v 5.287551 -0.051170 1.642840
v 5.287551 2.698830 1.642840
v 2.837552 -0.051170 1.642840
v 2.837552 2.698830 1.642840
v 5.287551 -0.051170 1.551840
v 5.287551 2.698830 1.551839
v 2.837552 -0.051170 1.551840
v 2.837552 2.698830 1.551839
v 5.196428 -0.051170 1.595453
v 5.196428 2.698830 1.595452
v 5.196428 -0.051170 -4.162047
v 5.196428 2.698830 -4.162047
v 5.287428 -0.051170 1.595453
v 5.287428 2.698830 1.595452
v 5.287428 -0.051170 -4.162047
v 5.287428 2.698830 -4.162047
vn -1.0000 -0.0000 -0.0000
vn -0.0000 -0.0000 -1.0000
vn 1.0000 -0.0000 -0.0000
vn -0.0000 -0.0000 1.0000
vn -0.0000 -1.0000 -0.0000
vn -0.0000 1.0000 -0.0000
s 1
f 2//1 4//1 3//1 1//1
f 4//2 8//2 7//2 3//2
f 8//3 6//3 5//3 7//3
f 6//4 2//4 1//4 5//4
f 1//5 3//5 7//5 5//5
f 6//6 8//6 4//6 2//6
f 10//4 12//4 11//4 9//4
f 12//1 16//1 15//1 11//1
f 16//2 14//2 13//2 15//2
f 14//3 10//3 9//3 13//3
f 9//5 11//5 15//5 13//5
f 14//6 16//6 12//6 10//6
f 18//1 20//1 19//1 17//1
f 20//2 24//2 23//2 19//2
f 24//3 22//3 21//3 23//3
f 22//4 18//4 17//4 21//4
f 17//5 19//5 23//5 21//5
f 22//6 24//6 20//6 18//6
f 26//4 28//4 27//4 25//4
f 28//1 32//1 31//1 27//1
f 32//2 30//2 29//2 31//2
f 30//3 26//3 25//3 29//3
f 25//5 27//5 31//5 29//5
f 30//6 32//6 28//6 26//6
f 34//4 36//4 35//4 33//4
f 36//1 40//1 39//1 35//1
f 40//2 38//2 37//2 39//2
f 38//3 34//3 33//3 37//3
f 33//5 35//5 39//5 37//5
f 38//6 40//6 36//6 34//6
f 42//1 44//1 43//1 41//1
f 44//2 48//2 47//2 43//2
f 48//3 46//3 45//3 47//3
f 46//4 42//4 41//4 45//4
f 41//5 43//5 47//5 45//5
f 46//6 48//6 44//6 42//6
f 50//4 52//4 51//4 49//4
f 52//1 56//1 55//1 51//1
f 56//2 54//2 53//2 55//2
f 54//3 50//3 49//3 53//3
f 49//5 51//5 55//5 53//5
f 54//6 56//6 52//6 50//6
f 58//1 60//1 59//1 57//1
f 60//2 64//2 63//2 59//2
f 64//3 62//3 61//3 63//3
f 62//4 58//4 57//4 61//4
f 57//5 59//5 63//5 61//5
f 62//6 64//6 60//6 58//6
f 66//4 68//4 67//4 65//4
f 68//1 72//1 71//1 67//1
f 72//2 70//2 69//2 71//2
f 70//3 66//3 65//3 69//3
f 65//5 67//5 71//5 69//5
f 70//6 72//6 68//6 66//6
f 74//1 76//1 75//1 73//1
f 76//2 80//2 79//2 75//2
f 80//3 78//3 77//3 79//3
f 78//4 74//4 73//4 77//4
f 73//5 75//5 79//5 77//5
f 78//6 80//6 76//6 74//6
