# Blender 4.2.1 LTS
# www.blender.org
mtllib table1_two.mtl
o Stütze_2
v -5.000000 74.702774 72.000000
v -5.000000 84.702774 72.000000
v 5.000000 74.702774 72.000000
v 5.000000 84.702774 72.000000
v 5.000000 74.702759 -72.000000
v 5.000000 84.702759 -72.000000
v -5.000000 74.702759 -72.000000
v -5.000000 84.702759 -72.000000
v -60.000000 -0.297226 76.000000
v -60.000000 99.702774 76.000000
v -50.000000 -0.297226 76.000000
v -50.000000 99.702774 76.000000
v -50.000000 -0.297230 68.000000
v -50.000000 99.702774 68.000000
v -60.000000 -0.297230 68.000000
v -60.000000 99.702774 68.000000
v 50.000000 -0.297226 76.000000
v 50.000000 99.702774 76.000000
v 60.000000 -0.297226 76.000000
v 60.000000 99.702774 76.000000
v 60.000000 -0.297230 68.000000
v 60.000000 99.702774 68.000000
v 50.000000 -0.297230 68.000000
v 50.000000 99.702774 68.000000
v -60.000000 -0.297237 -68.000000
v -60.000000 99.702759 -68.000000
v -50.000000 -0.297237 -68.000000
v -50.000000 99.702759 -68.000000
v -50.000000 -0.297241 -76.000000
v -50.000000 99.702759 -76.000000
v -60.000000 -0.297241 -76.000000
v -60.000000 99.702759 -76.000000
v 50.000000 -0.297237 -68.000000
v 50.000000 99.702759 -68.000000
v 60.000000 -0.297237 -68.000000
v 60.000000 99.702759 -68.000000
v 60.000000 -0.297241 -76.000000
v 60.000000 99.702759 -76.000000
v 50.000000 -0.297241 -76.000000
v 50.000000 99.702759 -76.000000
v -70.000000 97.220360 88.000000
v -70.000000 102.220360 87.999992
v 70.000000 97.220360 88.000000
v 70.000000 102.220360 87.999992
v 70.000000 97.220345 -88.000000
v 70.000000 102.220345 -88.000008
v -70.000000 97.220345 -88.000000
v -70.000000 102.220345 -88.000008
v -50.000000 74.702759 -67.927078
v -50.000000 84.702759 -67.927078
v 50.000000 74.702759 -67.927078
v 50.000000 84.702759 -67.927078
v 50.000000 74.702759 -75.927078
v 50.000000 84.702759 -75.927078
v -50.000000 74.702759 -75.927078
v -50.000000 84.702759 -75.927078
v -50.000000 74.702774 75.531235
v -50.000000 84.702774 75.531235
v 50.000000 74.702774 75.531235
v 50.000000 84.702774 75.531235
v 50.000000 74.702774 67.531235
v 50.000000 84.702774 67.531235
v -50.000000 74.702774 67.531235
v -50.000000 84.702774 67.531235
vn -0.0000 -0.0000 1.0000
vn 1.0000 -0.0000 -0.0000
vn -0.0000 -0.0000 -1.0000
vn -1.0000 -0.0000 -0.0000
vn -0.0000 1.0000 -0.0000
vn -0.0000 -1.0000 -0.0000
s 0
usemtl Mat.005
f 4//1 1//1 3//1
f 6//2 3//2 5//2
f 8//3 5//3 7//3
f 2//4 7//4 1//4
f 46//2 43//2 45//2
f 42//4 47//4 41//4
f 52//1 49//1 51//1
f 54//2 51//2 53//2
f 56//3 53//3 55//3
f 50//4 55//4 49//4
f 54//5 50//5 52//5
f 51//6 55//6 53//6
f 60//1 57//1 59//1
f 62//2 59//2 61//2
f 64//3 61//3 63//3
f 58//4 63//4 57//4
f 62//5 58//5 60//5
f 59//6 63//6 61//6
f 4//1 2//1 1//1
f 6//2 4//2 3//2
f 8//3 6//3 5//3
f 2//4 8//4 7//4
f 46//2 44//2 43//2
f 42//4 48//4 47//4
f 52//1 50//1 49//1
f 54//2 52//2 51//2
f 56//3 54//3 53//3
f 50//4 56//4 55//4
f 54//5 56//5 50//5
f 51//6 49//6 55//6
f 60//1 58//1 57//1
f 62//2 60//2 59//2
f 64//3 62//3 61//3
f 58//4 64//4 63//4
f 62//5 64//5 58//5
f 59//6 57//6 63//6
usemtl Mat.004
f 6//5 2//5 4//5
f 3//6 7//6 5//6
f 12//1 9//1 11//1
f 14//2 11//2 13//2
f 16//3 13//3 15//3
f 10//4 15//4 9//4
f 14//5 10//5 12//5
f 11//6 15//6 13//6
f 20//1 17//1 19//1
f 22//2 19//2 21//2
f 24//3 21//3 23//3
f 18//4 23//4 17//4
f 22//5 18//5 20//5
f 19//6 23//6 21//6
f 28//1 25//1 27//1
f 30//2 27//2 29//2
f 32//3 29//3 31//3
f 26//4 31//4 25//4
f 30//5 26//5 28//5
f 27//6 31//6 29//6
f 36//1 33//1 35//1
f 38//2 35//2 37//2
f 40//3 37//3 39//3
f 34//4 39//4 33//4
f 38//5 34//5 36//5
f 35//6 39//6 37//6
f 44//1 41//1 43//1
f 48//3 45//3 47//3
f 46//5 42//5 44//5
f 43//6 47//6 45//6
f 6//5 8//5 2//5
f 3//6 1//6 7//6
f 12//1 10//1 9//1
f 14//2 12//2 11//2
f 16//3 14//3 13//3
f 10//4 16//4 15//4
f 14//5 16//5 10//5
f 11//6 9//6 15//6
f 20//1 18//1 17//1
f 22//2 20//2 19//2
f 24//3 22//3 21//3
f 18//4 24//4 23//4
f 22//5 24//5 18//5
f 19//6 17//6 23//6
f 28//1 26//1 25//1
f 30//2 28//2 27//2
f 32//3 30//3 29//3
f 26//4 32//4 31//4
f 30//5 32//5 26//5
f 27//6 25//6 31//6
f 36//1 34//1 33//1
f 38//2 36//2 35//2
f 40//3 38//3 37//3
f 34//4 40//4 39//4
f 38//5 40//5 34//5
f 35//6 33//6 39//6
f 44//1 42//1 41//1
f 48//3 46//3 45//3
f 46//5 48//5 42//5
f 43//6 41//6 47//6
