# Blender 4.2.1 LTS
# www.blender.org
mtllib wall2_3.mtl
o Wall_Back_Cube.004
v 1.086343 -0.051170 -0.060280
v 1.086343 2.698830 -0.060280
v -4.303657 -0.051170 -0.060279
v -4.303657 2.698830 -0.060279
v 1.086343 -0.051170 -0.151280
v 1.086343 2.698830 -0.151280
v -4.303657 -0.051170 -0.151279
v -4.303657 2.698830 -0.151279
vn -0.0000 -0.0000 1.0000
vn -1.0000 -0.0000 -0.0000
vn -0.0000 -0.0000 -1.0000
vn 1.0000 -0.0000 -0.0000
vn -0.0000 -1.0000 -0.0000
vn -0.0000 1.0000 -0.0000
s 1
f 4//1 1//1 2//1
f 8//2 3//2 4//2
f 6//3 7//3 8//3
f 2//4 5//4 6//4
f 3//5 5//5 1//5
f 8//6 2//6 6//6
f 4//1 3//1 1//1
f 8//2 7//2 3//2
f 6//3 5//3 7//3
f 2//4 1//4 5//4
f 3//5 7//5 5//5
f 8//6 4//6 2//6
