# Blender 4.2.1 LTS
# www.blender.org
mtllib wall2_5.mtl
o Wall_Back_Cube.007
v 1.624363 -0.051170 0.043834
v 1.624363 2.698830 0.043833
v -2.050637 -0.051170 0.043834
v -2.050637 2.698830 0.043833
v 1.624363 -0.051170 -0.047167
v 1.624363 2.698830 -0.047167
v -2.050637 -0.051170 -0.047167
v -2.050637 2.698830 -0.047167
vn -0.0000 -0.0000 1.0000
vn -1.0000 -0.0000 -0.0000
vn -0.0000 -0.0000 -1.0000
vn 1.0000 -0.0000 -0.0000
vn -0.0000 -1.0000 -0.0000
vn -0.0000 1.0000 -0.0000
s 1
f 4//1 1//1 2//1
f 8//2 3//2 4//2
f 6//3 7//3 8//3
f 2//4 5//4 6//4
f 3//5 5//5 1//5
f 8//6 2//6 6//6
f 4//1 3//1 1//1
f 8//2 7//2 3//2
f 6//3 5//3 7//3
f 2//4 1//4 5//4
f 3//5 7//5 5//5
f 8//6 4//6 2//6
